<mxfile host="app.diagrams.net" modified="2023-10-28T14:43:54.355Z" agent="Mozilla/5.0 (X11; Ubuntu; Linux x86_64; rv:109.0) Gecko/20100101 Firefox/117.0" etag="4zi2PS2_wZRZ1MdbOXsp" version="22.0.8" type="github">
  <diagram name="Page-1" id="4U4JMfXd0RDARajSv950">
    <mxGraphModel dx="1374" dy="795" grid="1" gridSize="10" guides="1" tooltips="1" connect="1" arrows="1" fold="1" page="1" pageScale="1" pageWidth="850" pageHeight="1100" math="0" shadow="0">
      <root>
        <mxCell id="0" />
        <mxCell id="1" parent="0" />
        <mxCell id="87S1CcJHpvugYxWb0A-y-1" value="" style="rounded=0;whiteSpace=wrap;html=1;" vertex="1" parent="1">
          <mxGeometry x="360" y="380" width="120" height="60" as="geometry" />
        </mxCell>
      </root>
    </mxGraphModel>
  </diagram>
</mxfile>
